<svg width="12" height="7" viewBox="0 0 12 7" fill="none" xmlns="http://www.w3.org/2000/svg">
<path d="M11.0991 5.82493C11.0999 5.97869 11.0722 6.13111 11.0176 6.27345C10.9629 6.41579 10.8824 6.54526 10.7806 6.65442C10.6785 6.76392 10.5571 6.85084 10.4232 6.91015C10.2894 6.96946 10.1458 7 10.0009 7C9.85587 7 9.71232 6.96946 9.57848 6.91015C9.44465 6.85084 9.32318 6.76392 9.22108 6.65442L5.6078 2.78738L1.8734 6.66027C1.66762 6.87787 1.38927 7 1.09912 7C0.808976 7 0.530619 6.87787 0.324846 6.66027C0.221907 6.55166 0.140202 6.42245 0.0844451 6.28008C0.0286877 6.13771 -1.87038e-05 5.98501 -1.87019e-05 5.83078C-1.87001e-05 5.67655 0.0286877 5.52385 0.0844451 5.38148C0.140202 5.23912 0.221907 5.1099 0.324846 5.0013L4.81705 0.333965C5.02234 0.119903 5.29836 5.40019e-07 5.58583 5.43448e-07C5.8733 5.46876e-07 6.14932 0.119903 6.35462 0.333965L10.7477 5.00713C10.8541 5.11199 10.94 5.23826 11.0003 5.37862C11.0606 5.51899 11.0942 5.67068 11.0991 5.82493Z" fill="#4D4D4D"/>
</svg>
