<svg width="11" height="9" viewBox="0 0 11 9" fill="none" xmlns="http://www.w3.org/2000/svg">
<path d="M10.7063 0.330363C10.7994 0.434819 10.8733 0.558908 10.9237 0.695524C10.9741 0.832139 11 0.978597 11 1.12651C11 1.27442 10.9741 1.42087 10.9237 1.55749C10.8733 1.69411 10.7994 1.8182 10.7063 1.92265L4.70796 8.66964C4.61509 8.77436 4.50477 8.85744 4.38332 8.91413C4.26186 8.97082 4.13165 9 4.00015 9C3.86866 9 3.73845 8.97082 3.61699 8.91413C3.49554 8.85744 3.38522 8.77436 3.29235 8.66964L0.293182 5.29614C0.200232 5.19159 0.1265 5.06747 0.0761956 4.93087C0.0258913 4.79427 9.79389e-10 4.64786 0 4.5C-9.79387e-10 4.35214 0.0258913 4.20573 0.0761956 4.06913C0.1265 3.93253 0.200232 3.80841 0.293182 3.70386C0.386132 3.5993 0.49648 3.51637 0.617925 3.45979C0.73937 3.4032 0.869535 3.37408 1.00099 3.37408C1.13244 3.37408 1.2626 3.4032 1.38405 3.45979C1.50549 3.51637 1.61584 3.5993 1.70879 3.70386L4.00015 6.28345L9.29069 0.330363C9.38355 0.225642 9.49387 0.142558 9.61533 0.0858685C9.73679 0.0291793 9.86699 0 9.99849 0C10.13 0 10.2602 0.0291793 10.3817 0.0858685C10.5031 0.142558 10.6134 0.225642 10.7063 0.330363Z" fill="white"/>
</svg>
