<svg width="16" height="19" viewBox="0 0 16 19" fill="none" xmlns="http://www.w3.org/2000/svg">
<path d="M4.91898 2.23263C3.83902 2.53027 2.76639 2.85391 1.70203 3.20327C1.60484 3.23475 1.51845 3.2929 1.45269 3.37109C1.38693 3.44927 1.34446 3.54436 1.3301 3.6455C0.701907 8.35924 2.15333 11.7984 3.88484 14.064C4.61794 15.0328 5.49207 15.8863 6.47813 16.5961C6.87047 16.8728 7.21745 17.0723 7.49073 17.2005C7.6268 17.2651 7.73792 17.3082 7.82297 17.3343C7.86016 17.3473 7.89851 17.3568 7.93749 17.3626C7.97602 17.3564 8.01395 17.3469 8.05089 17.3343C8.13706 17.3082 8.24819 17.2651 8.38426 17.2005C8.6564 17.0723 9.00452 16.8716 9.39686 16.5961C10.3829 15.8863 11.257 15.0328 11.9901 14.064C13.7217 11.7996 15.1731 8.35924 14.5449 3.6455C14.5307 3.54431 14.4882 3.44916 14.4225 3.37096C14.3567 3.29275 14.2702 3.23464 14.173 3.20327C13.4348 2.96175 12.1886 2.56827 10.956 2.23376C9.69735 1.89245 8.53961 1.63959 7.93749 1.63959C7.33651 1.63959 6.17764 1.89245 4.91898 2.23376V2.23263ZM4.61736 1.06469C5.84767 0.730178 7.15508 0.429688 7.93749 0.429688C8.7199 0.429688 10.0273 0.730178 11.2576 1.06469C12.5163 1.40486 13.7852 1.80741 14.5313 2.0512C14.8432 2.15422 15.1198 2.34315 15.3292 2.59628C15.5386 2.84942 15.6724 3.15649 15.7151 3.48222C16.3909 8.55881 14.8227 12.3212 12.92 14.8101C12.1131 15.8749 11.151 16.8125 10.0659 17.5917C9.69065 17.8613 9.29308 18.0984 8.87752 18.3004C8.56002 18.4501 8.21871 18.5725 7.93749 18.5725C7.65628 18.5725 7.3161 18.4501 6.99747 18.3004C6.5819 18.0984 6.18434 17.8613 5.80911 17.5917C4.72398 16.8125 3.7619 15.8749 2.95502 14.8101C1.05229 12.3212 -0.515931 8.55881 0.15989 3.48222C0.202624 3.15649 0.336378 2.84942 0.545784 2.59628C0.755191 2.34315 1.03176 2.15422 1.34371 2.0512C2.42683 1.69607 3.51836 1.36713 4.61736 1.06469Z" fill="#B2B2B2"/>
<path d="M11.1733 6.26422C11.2261 6.31689 11.268 6.37945 11.2966 6.44833C11.3252 6.51721 11.3399 6.59106 11.3399 6.66563C11.3399 6.74021 11.3252 6.81405 11.2966 6.88293C11.268 6.95181 11.2261 7.01438 11.1733 7.06704L7.77154 10.4688C7.71888 10.5216 7.65631 10.5635 7.58743 10.5921C7.51855 10.6207 7.44471 10.6354 7.37013 10.6354C7.29556 10.6354 7.22171 10.6207 7.15283 10.5921C7.08395 10.5635 7.02139 10.5216 6.96872 10.4688L5.26783 8.76793C5.21512 8.71522 5.1733 8.65264 5.14477 8.58376C5.11625 8.51489 5.10156 8.44107 5.10156 8.36652C5.10156 8.29197 5.11625 8.21816 5.14477 8.14928C5.1733 8.08041 5.21512 8.01783 5.26783 7.96511C5.32055 7.9124 5.38313 7.87058 5.452 7.84206C5.52087 7.81353 5.59469 7.79884 5.66924 7.79884C5.74379 7.79884 5.81761 7.81353 5.88648 7.84206C5.95536 7.87058 6.01794 7.9124 6.07065 7.96511L7.37013 9.26573L10.3705 6.26422C10.4232 6.21142 10.4857 6.16953 10.5546 6.14095C10.6235 6.11237 10.6973 6.09766 10.7719 6.09766C10.8465 6.09766 10.9203 6.11237 10.9892 6.14095C11.0581 6.16953 11.1207 6.21142 11.1733 6.26422Z" fill="#B2B2B2"/>
</svg>
