<svg width="56" height="28" viewBox="0 0 56 28" fill="none" xmlns="http://www.w3.org/2000/svg">
<path d="M20.5194 16.5295C22.2446 18.2527 23.8289 19.8351 25.4132 21.4176C21.8221 25.8133 17.3508 28.521 11.4009 27.3957C5.87342 26.3408 2.24712 22.9297 0.803645 17.4439C-0.710247 11.6415 1.96547 5.62819 7.14087 2.67427C12.3163 -0.279648 18.7943 0.493997 23.0543 4.67871C27.8072 9.32058 32.4545 14.068 37.1723 18.745C39.6015 21.1363 43.1926 21.4176 45.7979 19.4835C48.7201 17.3032 49.2482 13.0833 46.9949 10.2349C44.7065 7.38647 40.4817 6.92932 37.7356 9.32058C36.785 10.1294 36.0104 11.1492 35.2007 12.0635C33.4403 10.3052 31.856 8.72277 30.2717 7.14031C33.7572 2.8501 38.158 -0.0686544 44.7065 1.23248C50.1636 2.28745 54.2123 6.75349 55.1277 12.3448C56.0079 17.8307 53.1209 23.4924 48.0864 26.1298C42.9462 28.8024 36.7146 27.8881 32.525 23.7737C27.8425 19.1318 23.1952 14.4548 18.5127 9.8129C16.5059 7.80846 13.6893 7.21064 11.2249 8.33594C8.72517 9.46125 7.35211 11.4305 7.3169 14.2086C7.28169 16.9515 8.54914 19.0263 11.0488 20.1868C13.5837 21.3472 15.9778 20.9956 18.0902 19.167C19.0056 18.323 19.7449 17.3735 20.5194 16.5295Z" fill="#03D69D"/>
</svg>
