<svg width="58" height="18" viewBox="0 0 58 18" fill="none" xmlns="http://www.w3.org/2000/svg">
<path d="M56.9981 0.540508C57.3425 0.900846 57.5228 1.31032 57.5228 1.80169C57.5228 2.29306 57.3425 2.71892 56.9981 3.0465C56.6538 3.37408 56.2111 3.53787 55.7028 3.53787C55.1781 3.53787 54.7354 3.37408 54.3911 3.0465C54.0468 2.71892 53.8828 2.29306 53.8828 1.80169C53.8828 1.31032 54.0632 0.900846 54.4075 0.540508C54.7518 0.180169 55.1945 0 55.7028 0C56.2111 0 56.6538 0.180169 56.9981 0.540508ZM54.1943 15.0032V6.66626C54.1943 5.84731 54.8666 5.17577 55.6864 5.17577C56.5063 5.17577 57.1785 5.84731 57.1785 6.66626V14.9868C57.1785 15.8058 56.5063 16.4773 55.6864 16.4773C54.8666 16.4937 54.1943 15.8221 54.1943 15.0032Z" fill="#B2B2B2"/>
<path d="M46.9791 16.4944C46.0117 16.4944 45.1427 15.9212 44.7819 15.0203L41.519 7.20753C41.1091 6.22479 41.8306 5.16016 42.8799 5.16016C43.4866 5.16016 44.0277 5.52049 44.2573 6.09376L46.9791 12.8583L49.7009 6.09376C49.9304 5.53687 50.4715 5.16016 51.0782 5.16016C52.144 5.16016 52.849 6.24117 52.4391 7.20753L49.1762 15.0367C48.8155 15.9212 47.9465 16.4944 46.9791 16.4944Z" fill="#B2B2B2"/>
<path d="M24.9249 11.8898C25.7283 12.6924 26.4662 13.4295 27.204 14.1665C25.5316 16.2139 23.4492 17.4751 20.6782 16.951C18.104 16.4596 16.4151 14.8708 15.7429 12.3157C15.0378 9.61315 16.2839 6.81234 18.6942 5.4365C21.1045 4.06066 24.1215 4.421 26.1054 6.3701C28.319 8.53213 30.4833 10.7433 32.6804 12.9217C33.8118 14.0355 35.4842 14.1665 36.6976 13.2657C38.0585 12.2502 38.3044 10.2847 37.2551 8.95799C36.1893 7.63129 34.2217 7.41836 32.9428 8.53213C32.5001 8.90885 32.1394 9.38384 31.7622 9.8097C30.9424 8.99075 30.2046 8.25369 29.4667 7.51664C31.09 5.51839 33.1395 4.15894 36.1893 4.76496C38.7307 5.25633 40.6163 7.33647 41.0426 9.94073C41.4526 12.4959 40.108 15.1329 37.7633 16.3613C35.3695 17.6061 32.4673 17.1803 30.5161 15.2639C28.3354 13.1019 26.171 10.9235 23.9903 8.76144C23.0557 7.82784 21.744 7.54939 20.5962 8.07352C19.4321 8.59765 18.7926 9.51488 18.7762 10.8088C18.7598 12.0864 19.3501 13.0527 20.5142 13.5933C21.6948 14.1338 22.8098 13.97 23.7935 13.1183C24.2199 12.7252 24.5642 12.2829 24.9249 11.8898Z" fill="#B2B2B2"/>
<path d="M11.0542 16.4941C10.1523 16.4941 9.38171 15.9045 9.15216 15.0528L7.66008 9.51667L6.1516 15.0528C5.92205 15.9045 5.15142 16.4941 4.26601 16.4941C3.39699 16.4941 2.62636 15.9209 2.38041 15.0692L0.0521081 6.94516C-0.193839 6.07707 0.46202 5.20898 1.36383 5.20898C1.9705 5.20898 2.51158 5.61846 2.67555 6.20811L4.36438 12.3175L5.95484 6.48655C6.168 5.73311 6.84025 5.20898 7.62729 5.20898C8.41432 5.20898 9.10297 5.73311 9.29973 6.48655L10.8902 12.3175L12.579 6.20811C12.743 5.61846 13.2841 5.20898 13.8907 5.20898H13.9399C14.8417 5.20898 15.4976 6.07707 15.2517 6.94516L12.9397 15.0855C12.7102 15.9209 11.9396 16.4941 11.0542 16.4941Z" fill="#B2B2B2"/>
</svg>
